<?xml version="1.0" encoding="utf-8"?>
<!-- Generator: Adobe Illustrator 19.0.0, SVG Export Plug-In . SVG Version: 6.00 Build 0)  -->
<svg version="1.1" id="Layer_1" xmlns="http://www.w3.org/2000/svg" xmlns:xlink="http://www.w3.org/1999/xlink" x="0px" y="0px"
	 viewBox="-1674 835.8 490.2 490.2" style="enable-background:new -1674 835.8 490.2 490.2;" xml:space="preserve">
<style type="text/css">
	.st0{fill:#FFFFFF;}
	.st1{fill:#3C92CA;}
</style>
<path class="st0" d="M-1341.7,1306.2h-77.3v-22.5c0-5.5-4.4-9.9-9.9-9.9s-9.9,4.4-9.9,9.9v22.5h-77.3c-5.5,0-9.9,4.4-9.9,9.9
	s4.4,9.9,9.9,9.9h174.5c5.5,0,9.9-4.4,9.9-9.9C-1331.8,1310.6-1336.2,1306.2-1341.7,1306.2z"/>
<path class="st0" d="M-1444,1112.9c-24.8,5.8-44,26.3-47.9,51.8h-39.6c4.1-15,17.8-26,34-26c5.5,0,9.9-4.4,9.9-9.9s-4.4-9.9-9.9-9.9
	c-27.2,0-49.9,19.8-54.3,45.8h-78.1c-1-0.3-1.9-0.5-3-0.5c-5.5,0-9.9,4.4-9.9,9.9v54c0,12.5,10.2,22.7,22.7,22.7h382.4
	c12.5,0,22.7-10.2,22.7-22.7V964.9c0-12.5-10.2-22.7-22.7-22.7h-107c-5.5,0-9.9,4.4-9.9,9.9s4.4,9.9,9.9,9.9h107
	c1.6,0,2.9,1.3,2.9,2.9v263.3c0,1.6-1.3,2.9-2.9,2.9h-382.4c-1.6,0-2.9-1.3-2.9-2.9v-43.6h357.2c5.5,0,9.9-4.4,9.9-9.9
	s-4.4-9.9-9.9-9.9h-42.3c-4.4-26-27.1-45.8-54.3-45.8c-5.5,0-9.9,4.4-9.9,9.9s4.4,9.9,9.9,9.9c16.3,0,29.9,11,34,26h-39.4
	c-4.2-28.4-27.6-50.6-56.4-53.2C-1436.1,1110.9-1444,1112.9-1444,1112.9z M-1429.8,1131.1c20.5,0,37.6,14.4,41.9,33.6h-83.8
	C-1467.5,1145.5-1450.3,1131.1-1429.8,1131.1z"/>
<path class="st0" d="M-1502.8,952.1c0-5.5-4.4-9.9-9.9-9.9h-107.4c-12.5,0-22.7,10.2-22.7,22.7v172.7c0,5.5,4.4,9.9,9.9,9.9
	s9.9-4.4,9.9-9.9V964.9c0-1.6,1.3-2.9,2.9-2.9h107.4C-1507.2,962-1502.8,957.6-1502.8,952.1z"/>
<path class="st1" d="M-1392.1,1102.8c5.5,0,9.9-4.4,9.9-9.9v-19.1h21.8c5.5,0,9.9-4.4,9.9-9.9v-19.7c0-6.7-1.9-13.3-5.5-19
	l-15.3-24.1c-1.5-2.3-2.2-5-2.2-7.7v-79.1c0-12-4.3-23.6-12.2-32.7l-36.6-42.4c-1.9-2.2-4.6-3.4-7.5-3.4l0,0c-2.9,0-5.6,1.3-7.5,3.5
	l-36.2,42.4c-7.7,9.1-12,20.6-12,32.5v78.6c0,3-0.9,5.8-2.6,8.2l-16.3,23.5c-4.2,6-6.4,13-6.4,20.3v19.1c0,5.5,4.4,9.9,9.9,9.9
	l18,0.1v19.1c0,5.5,4.4,9.9,9.9,9.9s9.9-4.4,9.9-9.9v-19.1l0.1-0.1c5.5,0,9.9-4.4,9.9-9.9s-4.4-9.9-9.9-9.9h-28v-9.2
	c0-3.2,1-6.3,2.8-9l16.3-23.5c4-5.8,6.1-12.5,6.1-19.6v-78.5c0-7.2,2.6-14.2,7.2-19.6l29-33.7l29,33.6c4.7,5.5,7.3,12.5,7.3,19.7
	v79.1c0,6.5,1.8,12.8,5.3,18.3l15.3,24.1c1.6,2.5,2.4,5.4,2.4,8.4v9.8h-26.6c-5.5,0-9.9,4.4-9.9,9.9c0,3.6,1.9,6.7,4.8,8.4v20.7
	C-1402,1098.4-1397.5,1102.8-1392.1,1102.8z"/>
<path class="st0" d="M-1440.7,1070.9v42.7c0,5.3,4,10,9.3,10.3c5.7,0.3,10.5-4.2,10.5-9.9v-43.1c0-5.5-4.4-9.9-9.9-9.9l0,0
	C-1436.3,1061-1440.7,1065.4-1440.7,1070.9z"/>
</svg>
